<svg width="57" height="67" viewBox="0 0 57 67" fill="none" xmlns="http://www.w3.org/2000/svg">
<path d="M11.4 15.2273C11.4 14.4196 11.7003 13.645 12.2348 13.0738C12.7692 12.5027 13.4941 12.1818 14.25 12.1818H42.75C43.5059 12.1818 44.2308 12.5027 44.7653 13.0738C45.2997 13.645 45.6 14.4196 45.6 15.2273C45.6 16.035 45.2997 16.8096 44.7653 17.3807C44.2308 17.9519 43.5059 18.2727 42.75 18.2727H14.25C13.4941 18.2727 12.7692 17.9519 12.2348 17.3807C11.7003 16.8096 11.4 16.035 11.4 15.2273ZM11.4 27.4091C11.4 26.6014 11.7003 25.8268 12.2348 25.2556C12.7692 24.6845 13.4941 24.3636 14.25 24.3636H42.75C43.5059 24.3636 44.2308 24.6845 44.7653 25.2556C45.2997 25.8268 45.6 26.6014 45.6 27.4091C45.6 28.2168 45.2997 28.9914 44.7653 29.5626C44.2308 30.1337 43.5059 30.4546 42.75 30.4546H14.25C13.4941 30.4546 12.7692 30.1337 12.2348 29.5626C11.7003 28.9914 11.4 28.2168 11.4 27.4091ZM14.25 36.5455C13.4941 36.5455 12.7692 36.8663 12.2348 37.4375C11.7003 38.0086 11.4 38.7832 11.4 39.5909C11.4 40.3986 11.7003 41.1732 12.2348 41.7444C12.7692 42.3155 13.4941 42.6364 14.25 42.6364H42.75C43.5059 42.6364 44.2308 42.3155 44.7653 41.7444C45.2997 41.1732 45.6 40.3986 45.6 39.5909C45.6 38.7832 45.2997 38.0086 44.7653 37.4375C44.2308 36.8663 43.5059 36.5455 42.75 36.5455H14.25ZM11.4 51.7727C11.4 50.965 11.7003 50.1904 12.2348 49.6193C12.7692 49.0481 13.4941 48.7273 14.25 48.7273H25.65C26.4059 48.7273 27.1308 49.0481 27.6653 49.6193C28.1997 50.1904 28.5 50.965 28.5 51.7727C28.5 52.5804 28.1997 53.3551 27.6653 53.9262C27.1308 54.4973 26.4059 54.8182 25.65 54.8182H14.25C13.4941 54.8182 12.7692 54.4973 12.2348 53.9262C11.7003 53.3551 11.4 52.5804 11.4 51.7727Z" fill="#D77A29"/>
<path fill-rule="evenodd" clip-rule="evenodd" d="M0 9.13636C0 6.71325 0.900801 4.38938 2.50424 2.67598C4.10767 0.962578 6.2824 0 8.55 0H48.45C50.7176 0 52.8923 0.962578 54.4958 2.67598C56.0992 4.38938 57 6.71325 57 9.13636V57.8636C57 60.2868 56.0992 62.6106 54.4958 64.324C52.8923 66.0374 50.7176 67 48.45 67H8.55C6.2824 67 4.10767 66.0374 2.50424 64.324C0.900801 62.6106 0 60.2868 0 57.8636V9.13636ZM8.55 6.09091H48.45C49.2059 6.09091 49.9308 6.41177 50.4653 6.9829C50.9997 7.55404 51.3 8.32866 51.3 9.13636V57.8636C51.3 58.6713 50.9997 59.446 50.4653 60.0171C49.9308 60.5882 49.2059 60.9091 48.45 60.9091H8.55C7.79413 60.9091 7.06922 60.5882 6.53475 60.0171C6.00027 59.446 5.7 58.6713 5.7 57.8636V9.13636C5.7 8.32866 6.00027 7.55404 6.53475 6.9829C7.06922 6.41177 7.79413 6.09091 8.55 6.09091Z" fill="#D77A29"/>
</svg>
